<?xml version="1.0" encoding="utf-8"?>
<!-- Generator: Adobe Illustrator 24.0.0, SVG Export Plug-In . SVG Version: 6.00 Build 0)  -->
<svg version="1.1" id="Layer_1" xmlns="http://www.w3.org/2000/svg" xmlns:xlink="http://www.w3.org/1999/xlink" x="0px" y="0px"
	 viewBox="0 0 587 194" style="enable-background:new 0 0 587 194;" xml:space="preserve">
<style type="text/css">
	.st0{fill:url(#SVGID_1_);}
	.st1{fill:url(#SVGID_2_);}
	.st2{fill:url(#SVGID_3_);}
	.st3{fill:url(#SVGID_4_);}
	.st4{fill:url(#SVGID_5_);}
	.st5{fill:url(#SVGID_6_);}
	.st6{fill:url(#SVGID_7_);}
	.st7{fill:url(#SVGID_8_);}
	.st8{fill:url(#SVGID_9_);}
</style>
<g>
	<linearGradient id="SVGID_1_" gradientUnits="userSpaceOnUse" x1="81.7342" y1="-3.0065" x2="81.7342" y2="186.2314">
		<stop  offset="0" style="stop-color:#934F1C"/>
		<stop  offset="1" style="stop-color:#666A29"/>
	</linearGradient>
	<path class="st0" d="M123.07,7.56L81.39,65.55L41.8,7.56H2.21l58.13,83.22c4.46,6.55,10.59,11.71,20.49,11.71
		c10.04,0,16.45-5.58,20.77-11.71l59.66-83.22H123.07z"/>
	<linearGradient id="SVGID_2_" gradientUnits="userSpaceOnUse" x1="204.5285" y1="-3.0065" x2="204.5285" y2="186.2314">
		<stop  offset="0" style="stop-color:#934F1C"/>
		<stop  offset="1" style="stop-color:#666A29"/>
	</linearGradient>
	<path class="st1" d="M205.43,5.89c-10.04,0-16.31,5.58-20.77,11.85L125,100.81h38.19l41.68-57.99l15.61,22.72
		c1.95,2.93,5.02,7.25,6.41,8.78c-2.93-0.28-8.22-0.28-12.69-0.28h-20.91l-19.52,26.76h110.26l-57.99-83.08
		C221.46,11.04,215.19,5.89,205.43,5.89z"/>
	<linearGradient id="SVGID_3_" gradientUnits="userSpaceOnUse" x1="345.8601" y1="-3.0065" x2="345.8601" y2="186.2314">
		<stop  offset="0" style="stop-color:#934F1C"/>
		<stop  offset="1" style="stop-color:#666A29"/>
	</linearGradient>
	<polygon class="st2" points="326.55,7.56 294.35,7.56 294.35,100.81 376.6,100.81 397.37,74.05 326.55,74.05 	"/>
	<linearGradient id="SVGID_4_" gradientUnits="userSpaceOnUse" x1="420.8443" y1="-3.0065" x2="420.8443" y2="186.2314">
		<stop  offset="0" style="stop-color:#934F1C"/>
		<stop  offset="1" style="stop-color:#666A29"/>
	</linearGradient>
	<rect x="404.74" y="7.56" class="st3" width="32.2" height="93.26"/>
	<linearGradient id="SVGID_5_" gradientUnits="userSpaceOnUse" x1="519.5998" y1="-3.0065" x2="519.5998" y2="186.2314">
		<stop  offset="0" style="stop-color:#934F1C"/>
		<stop  offset="1" style="stop-color:#666A29"/>
	</linearGradient>
	<path class="st4" d="M549.01,43.8h-52.97c-4.32,0-6.55-1.25-6.55-4.6s2.23-4.46,6.55-4.46h64.54l20.77-27.18h-82.24
		c-29.13,0-40.84,10.87-40.84,29.69c0,15.75,11.01,27.04,35.13,27.04h52.69c4.46,0,6.83,1.53,6.83,4.88c0,3.35-2.37,4.88-6.55,4.88
		h-70.4l-20.77,26.76h90.75c28.85,0,38.05-11.99,38.05-31.22C584,52.58,571.59,43.8,549.01,43.8z"/>
	<linearGradient id="SVGID_6_" gradientUnits="userSpaceOnUse" x1="155.9027" y1="-3.0065" x2="155.9027" y2="186.2314">
		<stop  offset="0" style="stop-color:#934F1C"/>
		<stop  offset="1" style="stop-color:#666A29"/>
	</linearGradient>
	<polygon class="st5" points="150.4,133.4 140.36,133.4 140.36,183.58 171.44,183.58 171.44,174.1 150.4,174.1 	"/>
	<linearGradient id="SVGID_7_" gradientUnits="userSpaceOnUse" x1="245.4561" y1="-3.0065" x2="245.4561" y2="186.2314">
		<stop  offset="0" style="stop-color:#934F1C"/>
		<stop  offset="1" style="stop-color:#666A29"/>
	</linearGradient>
	<path class="st6" d="M239.6,133.4l-16.17,50.17h10.38l3.34-11.29h16.24l3.28,11.29h10.8l-16.17-50.17H239.6z M239.95,162.81
		l5.44-18.4l5.3,18.4H239.95z"/>
	<linearGradient id="SVGID_8_" gradientUnits="userSpaceOnUse" x1="340.7935" y1="-3.0065" x2="340.7935" y2="186.2314">
		<stop  offset="0" style="stop-color:#934F1C"/>
		<stop  offset="1" style="stop-color:#666A29"/>
	</linearGradient>
	<path class="st7" d="M353.75,157.93c3.2-1.88,4.39-4.53,4.39-7.53v-7.11c0-5.85-4.04-9.89-9.89-9.89h-25.36v50.17h25.92
		c5.85,0,9.89-4.04,9.89-9.89v-8.22C358.7,162.46,357.24,159.6,353.75,157.93z M332.92,142.74h12.82c1.53,0,2.37,0.84,2.37,2.37
		v5.99c0,1.95-0.56,2.37-2.37,2.37h-12.82V142.74z M348.67,171.87c0,1.53-0.84,2.37-2.37,2.37h-13.38v-11.85h12.54
		c1.95,0,3.21,0.14,3.21,2.23V171.87z"/>
	<linearGradient id="SVGID_9_" gradientUnits="userSpaceOnUse" x1="433.2016" y1="-3.0065" x2="433.2016" y2="186.2314">
		<stop  offset="0" style="stop-color:#934F1C"/>
		<stop  offset="1" style="stop-color:#666A29"/>
	</linearGradient>
	<path class="st8" d="M440.87,154.87l-12.96-2.79c-1.53-0.35-2.37-0.84-2.37-2.37v-4.74c0-1.53,0.84-2.37,2.37-2.37h10.03
		c1.53,0,2.37,0.84,2.37,2.37v3.9h9.76v-5.85c0-5.85-4.04-9.89-9.89-9.89H425.4c-5.85,0-9.89,4.04-9.89,9.89v8.5
		c0,5.58,4.6,8.85,10.03,10.03l12.96,2.79c1.53,0.35,2.37,0.84,2.37,2.37v5.3c0,1.53-0.84,2.37-2.37,2.37h-10.87
		c-1.53,0-2.37-0.84-2.37-2.37v-4.46h-9.76v6.41c0,5.85,4.04,9.89,9.89,9.89h15.61c5.85,0,9.89-4.04,9.89-9.89v-9.06
		C450.9,159.33,446.3,156.05,440.87,154.87z"/>
</g>
</svg>
